<?xml version="1.0" ?><!DOCTYPE svg  PUBLIC '-//W3C//DTD SVG 1.1//EN'  'http://www.w3.org/Graphics/SVG/1.1/DTD/svg11.dtd'><svg enable-background="new 0 0 128 128" id="Слой_1" version="1.1" viewBox="0 0 128 128" xml:space="preserve" xmlns="http://www.w3.org/2000/svg" xmlns:xlink="http://www.w3.org/1999/xlink"><g><g><path d="M39,94.4H29c-2.8,0-5-2.2-5-5v-5h20v5C44,92.1,41.8,94.4,39,94.4z" fill="#DEF0F0"/></g><path d="M39,94.4H29c-2.8,0-5-2.2-5-5v-5h20v5C44,92.1,41.8,94.4,39,94.4z" fill="#502D4B" opacity="0.2"/><g><path d="M114,125.2c-0.7,0-1.2-0.6-1.2-1.2V24c0-10.3-8.4-18.8-18.8-18.8S75.2,13.7,75.2,24v80    c0,11.7-9.5,21.2-21.2,21.2s-21.2-9.5-21.2-21.2v-9.6c0-0.7,0.6-1.2,1.2-1.2s1.2,0.6,1.2,1.2v9.6c0,10.3,8.4,18.8,18.8,18.8    s18.8-8.4,18.8-18.8V24c0-11.7,9.5-21.2,21.2-21.2s21.2,9.5,21.2,21.2v100C115.2,124.7,114.7,125.2,114,125.2z" fill="#502D4B"/></g><g><rect fill="#E074A3" height="17" width="2.5" x="32.8" y="77.3"/></g><g><path d="M39,95.6H29c-3.4,0-6.2-2.8-6.2-6.2v-5c0-0.7,0.6-1.2,1.2-1.2h20c0.7,0,1.2,0.6,1.2,1.2v5    C45.2,92.8,42.4,95.6,39,95.6z M25.2,85.6v3.8c0,2.1,1.7,3.8,3.8,3.8h10c2.1,0,3.8-1.7,3.8-3.8v-3.8H25.2z" fill="#502D4B"/></g><g><path d="M34,89.5L34,89.5c-16.6,0-30-13.4-30-30V16.8c0-4.4,2.9-8.4,7.2-9.6c15.2-4.2,30.4-4.2,45.6,0    c4.3,1.2,7.2,5.2,7.2,9.6v42.7C64,76.1,50.6,89.5,34,89.5z" fill="#FFFFFF"/></g><g><path d="M34,83.5c-13.2,0-24-10.8-24-24V41.8h48v17.7C58,72.7,47.2,83.5,34,83.5z" fill="#E074A3"/></g><g><path d="M20.3,53H10c-0.7,0-1.2-0.6-1.2-1.2s0.6-1.2,1.2-1.2h10.3c0.7,0,1.2,0.6,1.2,1.2S21,53,20.3,53z" fill="#502D4B"/></g><g><path d="M20.3,63H11c-0.7,0-1.2-0.6-1.2-1.2s0.6-1.2,1.2-1.2h9.3c0.7,0,1.2,0.6,1.2,1.2S21,63,20.3,63z" fill="#502D4B"/></g><g><path d="M20.3,73H14c-0.7,0-1.2-0.6-1.2-1.2s0.6-1.2,1.2-1.2h6.3c0.7,0,1.2,0.6,1.2,1.2S21,73,20.3,73z" fill="#502D4B"/></g><g><path d="M34,84.8c-13.9,0-25.2-11.3-25.2-25.2V41.8c0-0.7,0.6-1.2,1.2-1.2h48c0.7,0,1.2,0.6,1.2,1.2v17.7    C59.2,73.4,47.9,84.8,34,84.8z M11.2,43v16.5C11.2,72,21.5,82.2,34,82.2S56.8,72,56.8,59.5V43H11.2z" fill="#502D4B"/></g><path d="M56.8,7.2c-9.3-2.6-18.5-3.6-27.8-3c5.9,0.4,11.9,1.4,17.8,3c4.3,1.2,7.2,5.2,7.2,9.6v42.7   c0,14.9-10.8,27.2-25,29.6c1.6,0.3,3.3,0.4,5,0.4c16.6,0,30-13.4,30-30V16.8C64,12.3,61.1,8.4,56.8,7.2z" fill="#502D4B" opacity="0.2"/><g><path d="M39.3,9.7h-3.8V9c0-0.7-0.6-1.2-1.2-1.2S33.1,8.3,33.1,9v0.8h-3.8c-0.7,0-1.2,0.6-1.2,1.2s0.6,1.2,1.2,1.2    h10c0.7,0,1.2-0.6,1.2-1.2S40,9.7,39.3,9.7z" fill="#502D4B"/></g><g opacity="0.3"><path d="M17.4,84.5C9.3,79.1,4,69.9,4,59.5V16.8c0-4.4,2.9-8.4,7.2-9.6c15.2-4.2,30.4-4.2,45.6,0    c4.3,1.2,7.2,5.2,7.2,9.6C40.8,29.2,26,52.7,17.4,84.5z" fill="#FFFFFF"/></g><g><path d="M34,90.8c-17.2,0-31.2-14-31.2-31.2V16.8c0-5,3.3-9.5,8.1-10.8C18.5,3.8,26.3,2.8,34,2.8S49.5,3.8,57.1,6    c4.8,1.3,8.1,5.8,8.1,10.8v42.7C65.2,76.7,51.2,90.8,34,90.8z M34,5.2c-7.4,0-15,1.1-22.5,3.1c-3.7,1-6.3,4.5-6.3,8.4v42.7    c0,15.9,12.9,28.8,28.8,28.8s28.8-12.9,28.8-28.8V16.8c0-3.9-2.6-7.4-6.3-8.4C49,6.3,41.4,5.2,34,5.2z" fill="#502D4B"/></g><g><path d="M77,96h-6c-1.1,0-2-0.9-2-2V78c0-1.1,0.9-2,2-2h6c1.1,0,2,0.9,2,2v16C79,95.1,78.1,96,77,96z" fill="#FFFFFF"/></g><g><path d="M77,97.2h-6c-1.8,0-3.2-1.5-3.2-3.2V78c0-1.8,1.5-3.2,3.2-3.2h6c1.8,0,3.2,1.5,3.2,3.2v16    C80.2,95.8,78.8,97.2,77,97.2z M71,77.2c-0.4,0-0.8,0.3-0.8,0.8v16c0,0.4,0.3,0.8,0.8,0.8h6c0.4,0,0.8-0.3,0.8-0.8V78    c0-0.4-0.3-0.8-0.8-0.8H71z" fill="#502D4B"/></g><g><path d="M74,87.2c-0.7,0-1.2-0.6-1.2-1.2v-6.5c0-0.7,0.6-1.2,1.2-1.2s1.2,0.6,1.2,1.2V86    C75.2,86.7,74.7,87.2,74,87.2z" fill="#E074A3"/></g></g></svg>